<svg
 xmlns="http://www.w3.org/2000/svg"
 xlinkHref="http://www.w3.org/1999/xlink"
 width="58px" height="12px">
<path fill-rule="evenodd"  fill="#171717"
 d="M55.689,7.996 C56.055,7.996 56.393,7.879 56.616,7.677 L56.776,7.532 L57.257,8.519 L57.165,8.602 C56.786,8.942 56.210,9.138 55.583,9.138 C54.179,9.138 53.375,8.333 53.374,6.928 L53.374,2.836 L53.374,1.706 L53.374,0.168 L54.641,0.168 L54.641,1.706 L56.766,1.706 L56.767,2.835 L54.641,2.835 L54.641,6.874 C54.642,7.618 54.994,7.996 55.689,7.996 ZM50.066,4.967 C50.065,3.596 49.392,2.871 48.118,2.871 C46.681,2.871 45.823,3.766 45.823,5.264 L45.824,9.139 L44.552,9.139 L44.551,1.738 L45.783,1.738 L45.783,2.704 C46.359,2.043 47.231,1.684 48.291,1.684 C50.198,1.684 51.337,2.876 51.338,4.873 L51.338,9.139 L50.066,9.139 L50.066,4.967 ZM40.872,1.739 L42.144,1.739 L42.145,9.140 L40.873,9.140 L40.872,1.739 ZM33.521,10.566 C30.609,10.566 28.452,8.433 28.452,5.461 C28.452,2.488 30.607,0.373 33.520,0.373 C36.433,0.373 38.570,2.487 38.571,5.459 C38.571,8.432 36.434,10.566 33.521,10.566 ZM36.495,7.098 L36.494,3.841 C36.494,3.466 36.193,3.162 35.820,3.162 L31.202,3.162 C30.829,3.162 30.528,3.466 30.528,3.841 L30.528,7.123 C30.528,7.484 30.819,7.778 31.178,7.778 L35.821,7.777 C36.193,7.777 36.495,7.473 36.495,7.098 ZM22.856,9.203 C21.835,9.203 20.961,8.824 20.347,8.126 L20.348,11.745 L19.076,11.745 L19.074,1.735 L20.306,1.735 L20.306,2.795 C20.919,2.073 21.806,1.681 22.855,1.681 C24.976,1.680 26.515,3.259 26.515,5.435 C26.516,7.618 24.977,9.203 22.856,9.203 ZM22.788,2.841 C21.343,2.841 20.333,3.908 20.333,5.435 C20.334,6.963 21.343,8.029 22.789,8.029 C24.234,8.029 25.244,6.962 25.244,5.435 C25.243,3.932 24.211,2.841 22.788,2.841 ZM15.636,4.965 C15.635,3.594 14.962,2.869 13.688,2.869 C12.251,2.869 11.393,3.763 11.393,5.262 L11.393,9.137 L10.122,9.137 L10.121,1.736 L11.353,1.736 L11.353,2.702 C11.929,2.040 12.801,1.682 13.861,1.682 C15.768,1.682 16.907,2.874 16.907,4.871 L16.908,9.136 L15.636,9.137 L15.636,4.965 ZM3.405,9.082 C2.138,8.795 1.138,7.788 0.852,6.511 C0.166,3.436 2.464,1.123 5.525,1.802 C6.795,2.084 7.799,3.094 8.079,4.374 C8.754,7.458 6.458,9.774 3.405,9.082 ZM4.470,2.843 C3.025,2.843 2.015,3.910 2.015,5.438 C2.016,6.965 3.025,8.032 4.471,8.032 C5.909,8.031 6.912,6.965 6.912,5.437 C6.912,3.910 5.908,2.843 4.470,2.843 Z"/>
</svg>
